<mxfile host="app.diagrams.net" modified="2022-04-28T09:50:42.967Z" agent="5.0 (Windows NT 10.0; Win64; x64) AppleWebKit/537.36 (KHTML, like Gecko) Chrome/100.0.4896.127 Safari/537.36" etag="3REPazUZaGYAJBX8BUyX" version="17.4.6" type="github">
  <diagram id="kgpKYQtTHZ0yAKxKKP6v" name="Page-1">
    <mxGraphModel dx="1422" dy="804" grid="1" gridSize="10" guides="1" tooltips="1" connect="1" arrows="1" fold="1" page="1" pageScale="1" pageWidth="850" pageHeight="1100" math="0" shadow="0">
      <root>
        <mxCell id="0" />
        <mxCell id="1" parent="0" />
        <mxCell id="uD1bxYfoeps85YKgvhQN-1" value="step 0：0、订单状态时valid。&lt;br&gt;&lt;br&gt;1、order对应bookingdate&amp;gt;=start&amp;amp;&amp;amp;bookingdate&amp;lt;=enddate&lt;br&gt;&lt;br&gt;2、订单对应的Region有from/to Region" style="rounded=1;whiteSpace=wrap;html=1;" vertex="1" parent="1">
          <mxGeometry x="104" y="20" width="300" height="90" as="geometry" />
        </mxCell>
        <mxCell id="uD1bxYfoeps85YKgvhQN-3" value="step 1:0、后端找出masterplan里面和step 0重合的订单以及order对应的运输情况（ocean和direct）。&lt;br&gt;&lt;br&gt;1、对于ocean运输的，若一个集装箱里面全是step 0里面的订单，则该箱子标记为可计划，若箱里有其他订单则该箱子标记为不可计划；对应前端无法选中该箱子，处理完成后显示以集装箱为纬度的订单列表。&lt;br&gt;&lt;br&gt;2、对于直接运输的，返回全部direct订单列表。" style="rounded=1;whiteSpace=wrap;html=1;" vertex="1" parent="1">
          <mxGeometry x="49" y="180" width="410" height="120" as="geometry" />
        </mxCell>
        <mxCell id="uD1bxYfoeps85YKgvhQN-4" value="" style="endArrow=classic;html=1;rounded=0;exitX=0.5;exitY=1;exitDx=0;exitDy=0;entryX=0.5;entryY=0;entryDx=0;entryDy=0;" edge="1" parent="1" source="uD1bxYfoeps85YKgvhQN-1" target="uD1bxYfoeps85YKgvhQN-3">
          <mxGeometry width="50" height="50" relative="1" as="geometry">
            <mxPoint x="249" y="200" as="sourcePoint" />
            <mxPoint x="299" y="150" as="targetPoint" />
          </mxGeometry>
        </mxCell>
        <mxCell id="uD1bxYfoeps85YKgvhQN-5" value="step 2:0、将没有被Plan过的OrderSet + 在masterPlan里面需要Replan的Set&amp;nbsp; = 总的需要Plan的Order集合。" style="rounded=1;whiteSpace=wrap;html=1;" vertex="1" parent="1">
          <mxGeometry x="82.75" y="370" width="342.5" height="70" as="geometry" />
        </mxCell>
        <mxCell id="uD1bxYfoeps85YKgvhQN-6" value="step 3： 0、选中的Order就是需要排除的Order集合，从上一步step 2中 减去 需要排除的Order集合 = 就是真正需要 Plan的Order集合。&amp;nbsp;" style="rounded=1;whiteSpace=wrap;html=1;" vertex="1" parent="1">
          <mxGeometry x="94" y="490" width="320" height="70" as="geometry" />
        </mxCell>
        <mxCell id="uD1bxYfoeps85YKgvhQN-7" value="" style="endArrow=classic;html=1;rounded=0;entryX=0.48;entryY=0.029;entryDx=0;entryDy=0;entryPerimeter=0;exitX=0.485;exitY=1.008;exitDx=0;exitDy=0;exitPerimeter=0;" edge="1" parent="1" source="uD1bxYfoeps85YKgvhQN-3" target="uD1bxYfoeps85YKgvhQN-5">
          <mxGeometry width="50" height="50" relative="1" as="geometry">
            <mxPoint x="246" y="310" as="sourcePoint" />
            <mxPoint x="299" y="270" as="targetPoint" />
          </mxGeometry>
        </mxCell>
        <mxCell id="uD1bxYfoeps85YKgvhQN-8" value="" style="endArrow=classic;html=1;rounded=0;exitX=0.477;exitY=1.014;exitDx=0;exitDy=0;exitPerimeter=0;entryX=0.475;entryY=0;entryDx=0;entryDy=0;entryPerimeter=0;" edge="1" parent="1" source="uD1bxYfoeps85YKgvhQN-5" target="uD1bxYfoeps85YKgvhQN-6">
          <mxGeometry width="50" height="50" relative="1" as="geometry">
            <mxPoint x="249" y="480" as="sourcePoint" />
            <mxPoint x="299" y="430" as="targetPoint" />
          </mxGeometry>
        </mxCell>
        <mxCell id="uD1bxYfoeps85YKgvhQN-9" value="n Orders in Selection：step 0的集合减去 step 1 中的集装箱和直运订单 加上 集装箱中多减的计划外订单数。 就是需要Plan的Order数。" style="ellipse;shape=cloud;whiteSpace=wrap;html=1;" vertex="1" parent="1">
          <mxGeometry x="670" width="170" height="120" as="geometry" />
        </mxCell>
        <mxCell id="uD1bxYfoeps85YKgvhQN-18" value="" style="curved=1;endArrow=classic;html=1;rounded=0;exitX=1;exitY=0.578;exitDx=0;exitDy=0;exitPerimeter=0;" edge="1" parent="1" source="uD1bxYfoeps85YKgvhQN-1">
          <mxGeometry width="50" height="50" relative="1" as="geometry">
            <mxPoint x="470" y="85" as="sourcePoint" />
            <mxPoint x="680" y="50" as="targetPoint" />
            <Array as="points">
              <mxPoint x="520" y="85" />
              <mxPoint x="470" y="35" />
            </Array>
          </mxGeometry>
        </mxCell>
      </root>
    </mxGraphModel>
  </diagram>
</mxfile>
